<mxfile host="app.diagrams.net" modified="2024-04-19T00:01:08.888Z" agent="Mozilla/5.0 (Windows NT 10.0; Win64; x64) AppleWebKit/537.36 (KHTML, like Gecko) Chrome/123.0.0.0 Safari/537.36" etag="Y7pGUgDc7gcE6nicAuw_" version="24.2.5" type="github">
  <diagram id="C5RBs43oDa-KdzZeNtuy" name="Page-1">
    <mxGraphModel dx="1195" dy="643" grid="1" gridSize="10" guides="1" tooltips="1" connect="1" arrows="1" fold="1" page="1" pageScale="1" pageWidth="320" pageHeight="420" math="0" shadow="0">
      <root>
        <mxCell id="WIyWlLk6GJQsqaUBKTNV-0" />
        <mxCell id="WIyWlLk6GJQsqaUBKTNV-1" parent="WIyWlLk6GJQsqaUBKTNV-0" />
        <mxCell id="uqOR9JgWqZxReUylYoV5-20" value="Cliente&lt;div&gt;Registrado&lt;/div&gt;" style="shape=note;whiteSpace=wrap;html=1;backgroundOutline=1;darkOpacity=0.05;" vertex="1" parent="WIyWlLk6GJQsqaUBKTNV-1">
          <mxGeometry x="30" y="50" width="100" height="70" as="geometry" />
        </mxCell>
        <mxCell id="uqOR9JgWqZxReUylYoV5-23" style="edgeStyle=orthogonalEdgeStyle;rounded=0;orthogonalLoop=1;jettySize=auto;html=1;exitX=1;exitY=0.5;exitDx=0;exitDy=0;" edge="1" parent="WIyWlLk6GJQsqaUBKTNV-1" source="uqOR9JgWqZxReUylYoV5-22">
          <mxGeometry relative="1" as="geometry">
            <mxPoint x="310" y="85.33333333333337" as="targetPoint" />
          </mxGeometry>
        </mxCell>
        <mxCell id="uqOR9JgWqZxReUylYoV5-22" value="" style="ellipse;whiteSpace=wrap;html=1;aspect=fixed;" vertex="1" parent="WIyWlLk6GJQsqaUBKTNV-1">
          <mxGeometry x="200" y="65" width="40" height="40" as="geometry" />
        </mxCell>
        <mxCell id="uqOR9JgWqZxReUylYoV5-24" value="" style="endArrow=none;dashed=1;html=1;rounded=0;exitX=0;exitY=0.5;exitDx=0;exitDy=0;" edge="1" parent="WIyWlLk6GJQsqaUBKTNV-1" source="uqOR9JgWqZxReUylYoV5-22" target="uqOR9JgWqZxReUylYoV5-20">
          <mxGeometry width="50" height="50" relative="1" as="geometry">
            <mxPoint x="450" y="270" as="sourcePoint" />
            <mxPoint x="500" y="220" as="targetPoint" />
          </mxGeometry>
        </mxCell>
        <mxCell id="uqOR9JgWqZxReUylYoV5-26" style="edgeStyle=orthogonalEdgeStyle;rounded=0;orthogonalLoop=1;jettySize=auto;html=1;exitX=0.5;exitY=1;exitDx=0;exitDy=0;" edge="1" parent="WIyWlLk6GJQsqaUBKTNV-1" source="uqOR9JgWqZxReUylYoV5-25" target="uqOR9JgWqZxReUylYoV5-27">
          <mxGeometry relative="1" as="geometry">
            <mxPoint x="365" y="160" as="targetPoint" />
          </mxGeometry>
        </mxCell>
        <mxCell id="uqOR9JgWqZxReUylYoV5-25" value="Cliente insere&lt;div&gt;usuário e senha&lt;/div&gt;" style="rounded=1;whiteSpace=wrap;html=1;" vertex="1" parent="WIyWlLk6GJQsqaUBKTNV-1">
          <mxGeometry x="310" y="61.25" width="110" height="47.5" as="geometry" />
        </mxCell>
        <mxCell id="uqOR9JgWqZxReUylYoV5-28" value="Não" style="edgeStyle=orthogonalEdgeStyle;rounded=0;orthogonalLoop=1;jettySize=auto;html=1;exitX=1;exitY=0.5;exitDx=0;exitDy=0;" edge="1" parent="WIyWlLk6GJQsqaUBKTNV-1" source="uqOR9JgWqZxReUylYoV5-27">
          <mxGeometry relative="1" as="geometry">
            <mxPoint x="490" y="175.33333333333337" as="targetPoint" />
          </mxGeometry>
        </mxCell>
        <mxCell id="uqOR9JgWqZxReUylYoV5-30" value="Sim" style="edgeStyle=orthogonalEdgeStyle;rounded=0;orthogonalLoop=1;jettySize=auto;html=1;exitX=0.5;exitY=1;exitDx=0;exitDy=0;" edge="1" parent="WIyWlLk6GJQsqaUBKTNV-1" source="uqOR9JgWqZxReUylYoV5-27">
          <mxGeometry relative="1" as="geometry">
            <mxPoint x="365" y="260" as="targetPoint" />
          </mxGeometry>
        </mxCell>
        <mxCell id="uqOR9JgWqZxReUylYoV5-27" value="Credenciais&lt;div&gt;corretas?&lt;/div&gt;" style="rhombus;whiteSpace=wrap;html=1;" vertex="1" parent="WIyWlLk6GJQsqaUBKTNV-1">
          <mxGeometry x="305" y="140" width="120" height="70" as="geometry" />
        </mxCell>
        <mxCell id="uqOR9JgWqZxReUylYoV5-32" style="edgeStyle=orthogonalEdgeStyle;rounded=0;orthogonalLoop=1;jettySize=auto;html=1;exitX=0.5;exitY=0;exitDx=0;exitDy=0;entryX=1;entryY=0.5;entryDx=0;entryDy=0;" edge="1" parent="WIyWlLk6GJQsqaUBKTNV-1" source="uqOR9JgWqZxReUylYoV5-29" target="uqOR9JgWqZxReUylYoV5-25">
          <mxGeometry relative="1" as="geometry" />
        </mxCell>
        <mxCell id="uqOR9JgWqZxReUylYoV5-29" value="Mensagem de&lt;div&gt;Erro&lt;/div&gt;" style="rounded=1;whiteSpace=wrap;html=1;" vertex="1" parent="WIyWlLk6GJQsqaUBKTNV-1">
          <mxGeometry x="490" y="152.5" width="110" height="45" as="geometry" />
        </mxCell>
        <mxCell id="uqOR9JgWqZxReUylYoV5-33" style="edgeStyle=orthogonalEdgeStyle;rounded=0;orthogonalLoop=1;jettySize=auto;html=1;exitX=0.5;exitY=1;exitDx=0;exitDy=0;" edge="1" parent="WIyWlLk6GJQsqaUBKTNV-1" source="uqOR9JgWqZxReUylYoV5-31" target="uqOR9JgWqZxReUylYoV5-34">
          <mxGeometry relative="1" as="geometry">
            <mxPoint x="365" y="360" as="targetPoint" />
          </mxGeometry>
        </mxCell>
        <mxCell id="uqOR9JgWqZxReUylYoV5-31" value="Usuário autenticado&lt;div&gt;com sucesso&lt;/div&gt;" style="rounded=1;whiteSpace=wrap;html=1;" vertex="1" parent="WIyWlLk6GJQsqaUBKTNV-1">
          <mxGeometry x="305" y="260" width="120" height="50" as="geometry" />
        </mxCell>
        <mxCell id="uqOR9JgWqZxReUylYoV5-34" value="" style="ellipse;whiteSpace=wrap;html=1;aspect=fixed;" vertex="1" parent="WIyWlLk6GJQsqaUBKTNV-1">
          <mxGeometry x="345" y="340" width="40" height="40" as="geometry" />
        </mxCell>
        <mxCell id="uqOR9JgWqZxReUylYoV5-35" value="" style="ellipse;whiteSpace=wrap;html=1;aspect=fixed;" vertex="1" parent="WIyWlLk6GJQsqaUBKTNV-1">
          <mxGeometry x="350" y="345" width="30" height="30" as="geometry" />
        </mxCell>
      </root>
    </mxGraphModel>
  </diagram>
</mxfile>
